<svg xmlns="http://www.w3.org/2000/svg" viewBox="0 0 106 106"><defs><style>.cls-1{fill:#eee;}.cls-2{fill:#fff;}.cls-3{opacity:0.05;}.cls-4{opacity:0.1;}.cls-5{fill:#ff7575;}.cls-6{fill:#171c1f;}</style></defs><title>playing-cards</title><g id="Playing-Cards"><g id="Fill_Back" data-name="Fill Back"><path class="cls-1" d="M93.94,92l-8-69.69a6,6,0,0,0-6.67-5.29l-8.5,1L69.85,7.49A6,6,0,0,0,63.34,2L17.48,6.11A6,6,0,0,0,12,12.63l6.12,69.88A6,6,0,0,0,24.66,88l10.07-.89,1.33,11.58a6,6,0,0,0,6.67,5.29L88.64,98.7A6,6,0,0,0,93.94,92Z"/></g><g id="Fill"><rect class="cls-2" x="24" y="12" width="58" height="82" rx="6" ry="6"/></g><g id="Shadows_1" data-name="Shadows 1" class="cls-3"><path d="M80,13l-1.17-.26a6,6,0,0,1,1.35,1Zm-4.5-1L71,11,69.57,6H30A12,12,0,0,0,18,18V84.67L24,88V18a6,6,0,0,1,6-6ZM87,22l-5-4.18c0,.06,0,.12,0,.18V88a6,6,0,0,1-6,6H30a6,6,0,0,1-2.31-.46L28,94l7,1,1.82,5H76A12,12,0,0,0,88,88V22.7Z"/></g><g id="Shadows_2" data-name="Shadows 2" class="cls-4"><path d="M80,88V86a4,4,0,0,1-4,4H30a4,4,0,0,1-4-4v2a4,4,0,0,0,4,4H76A4,4,0,0,0,80,88Zm11.94,4.27-.25-2a4,4,0,0,1-3.53,4.44L42.25,99.95a4,4,0,0,1-4.41-3.33l.21,1.8a4,4,0,0,0,4.45,3.53l45.91-5.24A4,4,0,0,0,91.94,92.27ZM53,69c2,0,12-10,12-17a6.92,6.92,0,0,0-.29-1.89C63.11,56.85,54.81,65,53,65S42.69,58.31,41.23,50.29A7,7,0,0,0,41,52C41,61,51,69,53,69Z"/></g><g id="Red"><path class="cls-5" d="M64,48a6,6,0,0,0-11-3.31,6,6,0,0,0-10.95,4.05C42.57,56.48,51.06,64,53,64s10.43-7.52,10.95-15.26A6,6,0,0,0,64,48Z"/></g><g id="Inner_Lines" data-name="Inner Lines"><path class="cls-6" d="M58,41a7,7,0,0,0-5,2.11A7,7,0,0,0,41,48c0,9,10,17,12,17S65,55,65,48A7,7,0,0,0,58,41ZM52.94,62.93C50.89,62,43,55.43,43,48a5,5,0,0,1,8.57-3.49L53,46l1.43-1.46A5,5,0,0,1,63,48C63,53.48,55.15,61.71,52.94,62.93ZM39,20H35a1,1,0,0,0,0,2h1v4a1,1,0,0,1-2,0,1,1,0,1,0-2,0,3,3,0,0,0,6,0V22h1a1,1,0,0,0,0-2ZM73,77H69a1,1,0,1,0,0,2h1v4a1,1,0,0,1-2,0,1,1,0,0,0-2,0,3,3,0,0,0,6,0V79h1a1,1,0,1,0,0-2Z"/></g><g id="Outline"><path class="cls-6" d="M95.94,91.81l-8-69.69A8,8,0,0,0,83.73,16,8,8,0,0,0,76,10H72.08l-.24-2.68A8,8,0,0,0,63.17,0L17.31,4.11A8,8,0,0,0,10,12.81l6.12,69.88a8,8,0,0,0,6,7.07A8,8,0,0,0,30,96h3.73l.33,2.88a8,8,0,0,0,8.9,7.05l45.91-5.24A8,8,0,0,0,95.94,91.81ZM22,18V85.35a4,4,0,0,1-1.85-3L14,12.45a4,4,0,0,1,3.64-4.35L63.52,4a4,4,0,0,1,4.34,3.64l.2,2.33H30A8,8,0,0,0,22,18Zm8,74a4,4,0,0,1-4-4V18a4,4,0,0,1,4-4H76a4,4,0,0,1,4,4V88a4,4,0,0,1-4,4Zm58.41,4.71L42.5,101.95a4,4,0,0,1-4.45-3.53L37.78,96H76a8,8,0,0,0,8-8V23l7.94,69.23A4,4,0,0,1,88.41,96.71Z"/></g></g></svg>